<svg xmlns="http://www.w3.org/2000/svg" xmlns:v="https://svgstorm.com"
viewBox = "0 0 228 205"
width="228"
height="205">
<g fill="None" fill-opacity="0.0" stroke="#FDFEFC" stroke-opacity="1.00" stroke-width="0.3"><path d="
M 0.00 205.00 
L 228.00 205.00
L 228.00 0.00
L 0.00 0.00
L 0.00 205.00
M 125.00 5.00 
C 141.66 6.32 158.19 19.11 168.00 32.00
C 163.44 34.05 158.56 34.95 154.00 37.00
C 125.93 1.48 62.38 19.75 54.00 63.00
C 53.53 64.63 53.62 66.37 53.00 68.00
C 49.17 67.03 38.03 70.16 39.00 66.00
C 37.60 56.03 46.12 44.97 50.31 36.31 C 54.49 27.64 63.58 22.16 71.23 16.23 C 78.88 10.30 91.04 5.59 101.00 5.00
C 102.87 4.73 105.50 4.05 108.00 4.00
C 111.00 3.94 114.00 4.00 117.00 4.00
C 119.95 4.00 122.73 4.56 125.00 5.00
M 189.00 35.00 
C 186.65 46.15 185.60 58.29 183.00 69.00
C 174.80 55.74 164.84 69.84 157.75 77.75 C 150.66 85.67 142.86 95.36 135.00 103.00
C 126.88 95.38 104.14 82.85 120.00 72.00
C 125.86 73.90 128.70 81.85 135.00 83.00
C 144.52 72.16 155.66 62.49 164.00 51.00
C 161.43 48.77 157.62 46.47 157.00 43.00
C 167.59 40.03 177.92 36.05 189.00 35.00
M 131.00 120.00 
C 131.23 120.35 131.00 121.00 131.00 121.00
C 124.15 132.01 118.96 129.31 111.75 121.25 C 104.55 113.19 99.19 107.98 92.00 105.00
C 80.75 79.44 43.03 95.56 21.00 91.00
C 20.13 94.77 23.87 97.20 23.00 101.00
C 38.32 103.34 58.34 95.42 70.00 107.00
C 73.20 108.51 82.63 112.63 81.97 118.03 C 81.32 123.43 75.10 128.62 70.00 126.00
C 56.89 119.27 45.39 115.54 29.00 118.00
C 28.18 127.51 33.13 130.42 33.93 140.07 C 34.73 149.72 46.85 146.07 54.00 148.00
C 54.50 148.00 55.51 148.08 56.00 148.00
C 61.04 142.65 71.53 139.50 75.77 131.77 C 80.01 124.04 89.90 120.60 94.00 113.00
C 100.80 111.59 106.01 118.56 108.00 124.00
C 93.18 136.48 80.78 154.30 65.00 165.00
C 59.66 161.54 50.02 165.17 43.00 165.00
C 41.69 172.04 52.67 174.02 54.00 177.00
C 62.19 178.81 69.53 179.19 78.00 177.00
C 84.10 174.34 87.99 170.88 93.70 166.70 C 99.40 162.51 107.67 170.87 107.00 177.00
C 115.18 178.24 120.77 186.22 127.00 191.00
C 127.20 191.40 127.00 192.00 127.00 192.00
C 128.24 193.66 116.53 194.45 112.00 194.00 C 107.47 193.55 97.50 194.12 92.00 194.00 C 86.50 193.88 78.89 193.82 73.00 194.00 C 67.11 194.18 59.93 192.52 54.00 193.00 C 48.07 193.48 44.40 188.09 39.00 190.00
C 29.87 181.21 23.95 168.15 20.67 155.33 C 17.39 142.51 12.11 124.45 9.00 112.00 C 5.90 99.54 -3.91 76.04 14.01 73.01 C 31.93 69.97 52.42 75.01 69.00 73.00 C 85.58 70.99 95.27 81.68 105.75 91.25 C 116.23 100.81 126.35 109.68 131.00 120.00
M 212.00 114.00 
C 211.57 116.91 211.03 118.61 210.00 121.00
C 199.06 146.34 202.18 181.33 171.00 192.00
C 170.34 192.23 170.11 192.86 169.00 193.00
C 159.55 196.85 142.16 193.00 133.75 189.25 C 125.35 185.49 115.06 177.36 110.23 170.77 C 105.40 164.18 91.18 156.19 92.00 149.00
C 92.51 144.52 96.64 142.62 99.00 139.00
C 115.07 149.09 125.39 170.85 144.00 176.00
C 157.34 178.48 175.28 178.42 181.00 164.00
C 172.59 165.15 164.71 162.17 156.98 161.02 C 149.24 159.88 145.89 152.51 138.00 152.00
C 138.13 147.83 141.27 144.94 143.00 142.00
C 137.69 143.64 128.31 151.70 129.00 158.00
C 120.54 156.12 113.31 148.05 118.70 140.70 C 124.10 133.36 131.67 128.07 134.00 120.00
C 143.89 117.63 147.56 106.86 158.69 103.69 C 169.83 100.53 186.44 100.50 199.00 101.00
C 198.88 99.17 198.74 96.54 201.00 96.00
C 201.36 94.89 201.67 93.47 202.00 92.00
C 201.85 91.02 202.12 89.98 202.00 89.00
C 188.17 88.33 173.01 90.33 160.00 88.00
C 158.82 86.14 164.52 75.07 169.25 74.25 C 173.98 73.43 186.73 73.89 193.00 74.00 C 199.27 74.11 207.64 72.15 213.75 76.25 C 219.86 80.35 217.42 87.95 216.22 94.22 C 215.02 100.49 212.94 107.58 212.00 114.00 Z"/>
</g>
<g fill="None" fill-opacity="0.0" stroke="#93CFAC" stroke-opacity="1.00" stroke-width="0.3"><path d="
M 101.00 5.00 
C 103.32 4.86 106.36 4.16 108.00 4.00
C 105.50 4.05 102.87 4.73 101.00 5.00 Z"/>
</g>
<g fill="None" fill-opacity="0.0" stroke="#1A8246" stroke-opacity="1.00" stroke-width="0.3"><path d="
M 101.00 5.00 
C 91.04 5.59 78.88 10.30 71.23 16.23 C 63.58 22.16 54.49 27.64 50.31 36.31 C 46.12 44.97 37.60 56.03 39.00 66.00
C 41.87 70.37 52.51 66.46 54.00 63.00
C 62.38 19.75 125.93 1.48 154.00 37.00
C 158.56 34.95 163.44 34.05 168.00 32.00
C 158.19 19.11 141.66 6.32 125.00 5.00
C 122.40 4.79 118.93 4.19 117.00 4.00
C 114.00 4.00 111.00 3.94 108.00 4.00
C 106.36 4.16 103.32 4.86 101.00 5.00 Z"/>
</g>
<g fill="None" fill-opacity="0.0" stroke="#A3D9B9" stroke-opacity="1.00" stroke-width="0.3"><path d="
M 125.00 5.00 
C 122.73 4.56 119.95 4.00 117.00 4.00
C 118.93 4.19 122.40 4.79 125.00 5.00 Z"/>
</g>
<g fill="None" fill-opacity="0.0" stroke="#1B8246" stroke-opacity="1.00" stroke-width="0.3"><path d="
M 189.00 35.00 
C 177.92 36.05 167.59 40.03 157.00 43.00
C 157.62 46.47 161.43 48.77 164.00 51.00
C 155.66 62.49 144.52 72.16 135.00 83.00
C 128.70 81.85 125.86 73.90 120.00 72.00
C 104.14 82.85 126.88 95.38 135.00 103.00
C 142.86 95.36 150.66 85.67 157.75 77.75 C 164.84 69.84 174.80 55.74 183.00 69.00
C 185.60 58.29 186.65 46.15 189.00 35.00 Z"/>
</g>
<g fill="None" fill-opacity="0.0" stroke="#8EC4A5" stroke-opacity="1.00" stroke-width="0.3"><path d="
M 39.00 66.00 
C 38.03 70.16 49.17 67.03 53.00 68.00
C 53.62 66.37 53.53 64.63 54.00 63.00
C 52.51 66.46 41.87 70.37 39.00 66.00 Z"/>
</g>
<g fill="None" fill-opacity="0.0" stroke="#FEFBD6" stroke-opacity="1.00" stroke-width="0.3"><path d="
M 127.00 192.00 
C 123.03 196.10 113.01 191.76 107.00 193.00 C 100.99 194.24 91.52 192.20 85.00 193.00 C 78.48 193.80 69.84 192.57 64.00 192.00
C 56.11 192.00 48.91 191.38 42.00 188.00
C 36.76 185.44 31.84 179.94 29.00 175.00
C 20.99 161.08 20.89 149.87 16.02 133.98 C 11.16 118.08 9.25 109.37 5.07 90.93 C 0.89 72.49 28.61 72.40 43.00 74.00 C 57.39 75.60 79.14 70.98 90.74 80.26 C 102.35 89.53 109.54 95.92 119.00 107.00
C 123.04 111.04 128.93 114.72 131.00 120.00
C 126.35 109.68 116.23 100.81 105.75 91.25 C 95.27 81.68 85.58 70.99 69.00 73.00 C 52.42 75.01 31.93 69.97 14.01 73.01 C -3.91 76.04 5.90 99.54 9.00 112.00 C 12.11 124.45 17.39 142.51 20.67 155.33 C 23.95 168.15 29.87 181.21 39.00 190.00
C 44.40 188.09 48.07 193.48 54.00 193.00 C 59.93 192.52 67.11 194.18 73.00 194.00 C 78.89 193.82 86.50 193.88 92.00 194.00 C 97.50 194.12 107.47 193.55 112.00 194.00 C 116.53 194.45 128.24 193.66 127.00 192.00 Z"/>
</g>
<g fill="None" fill-opacity="0.0" stroke="#E3B72C" stroke-opacity="1.00" stroke-width="0.3"><path d="
M 29.00 175.00 
C 32.06 179.20 37.70 185.11 42.00 188.00
C 48.91 191.38 56.11 192.00 64.00 192.00
C 69.67 192.00 75.33 192.00 81.00 192.00
C 89.21 189.97 96.58 179.97 105.00 179.00
C 102.69 177.23 107.41 175.32 106.00 173.00
C 102.52 171.35 100.92 166.49 97.00 166.00
C 94.84 166.22 88.54 172.79 86.00 174.00
C 83.18 175.35 81.07 176.20 78.00 177.00
C 69.53 179.19 62.19 178.81 54.00 177.00
C 47.63 175.59 40.92 171.14 40.00 164.00
C 44.29 162.26 50.21 164.16 54.00 162.00
C 43.35 162.00 34.20 162.35 35.00 149.00
C 36.57 148.61 39.22 149.94 40.00 148.00
C 32.48 147.42 31.78 139.52 30.22 133.78 C 28.67 128.03 23.38 116.86 31.01 116.01 C 38.63 115.16 47.79 116.01 55.00 116.00 C 62.21 115.99 65.19 122.43 70.00 126.00
C 75.10 128.62 81.32 123.43 81.97 118.03 C 82.63 112.63 73.20 108.51 70.00 107.00
C 55.35 100.07 38.46 102.24 22.00 102.00
C 21.81 97.89 19.10 94.42 20.00 90.00
C 38.61 90.57 69.49 83.83 85.25 93.75 C 101.00 103.68 107.20 117.56 121.00 129.00
C 125.27 128.21 127.22 122.87 131.00 121.00
C 131.00 121.00 131.23 120.35 131.00 120.00
C 128.05 115.39 122.63 111.25 119.00 107.00
C 109.54 95.92 102.35 89.53 90.74 80.26 C 79.14 70.98 57.39 75.60 43.00 74.00 C 28.61 72.40 0.89 72.49 5.07 90.93 C 9.25 109.37 11.16 118.08 16.02 133.98 C 20.89 149.87 20.99 161.08 29.00 175.00 Z"/>
</g>
<g fill="None" fill-opacity="0.0" stroke="#E3B72C" stroke-opacity="1.00" stroke-width="0.3"><path d="
M 160.00 88.00 
C 174.67 88.00 189.33 88.00 204.00 88.00
C 202.63 89.05 203.77 91.44 202.00 92.00
C 201.67 93.47 201.36 94.89 201.00 96.00
C 200.39 97.87 199.41 100.07 199.00 102.00
C 197.92 107.14 199.29 114.35 193.00 116.00
C 193.91 116.28 195.07 115.78 196.00 116.00
C 193.93 126.88 191.16 137.71 187.00 148.00
C 186.03 152.24 186.85 161.87 181.00 162.00
C 180.99 162.00 181.00 163.00 181.00 163.00
C 185.18 164.40 175.97 175.73 169.77 176.77 C 163.57 177.82 150.51 178.00 144.00 176.00
C 125.39 170.85 115.07 149.09 99.00 139.00
C 96.64 142.62 92.51 144.52 92.00 149.00
C 92.71 154.16 100.74 157.57 103.75 162.25 C 106.76 166.93 112.94 170.44 116.75 175.25 C 120.57 180.06 125.86 183.36 131.23 186.77 C 136.60 190.18 145.20 192.00 152.00 192.00
C 158.17 192.00 164.88 192.76 171.00 192.00
C 202.18 181.33 199.06 146.34 210.00 121.00
C 210.61 118.74 211.47 115.92 212.00 114.00
C 212.94 107.58 215.02 100.49 216.22 94.22 C 217.42 87.95 219.86 80.35 213.75 76.25 C 207.64 72.15 199.27 74.11 193.00 74.00 C 186.73 73.89 173.98 73.43 169.25 74.25 C 164.52 75.07 158.82 86.14 160.00 88.00 Z"/>
</g>
<g fill="None" fill-opacity="0.0" stroke="#FFFDD8" stroke-opacity="1.00" stroke-width="0.3"><path d="
M 202.00 92.00 
C 203.77 91.44 202.63 89.05 204.00 88.00
C 189.33 88.00 174.67 88.00 160.00 88.00
C 173.01 90.33 188.17 88.33 202.00 89.00
C 202.12 89.98 201.85 91.02 202.00 92.00 Z"/>
</g>
<g fill="None" fill-opacity="0.0" stroke="#FEFCD9" stroke-opacity="1.00" stroke-width="0.3"><path d="
M 70.00 107.00 
C 58.34 95.42 38.32 103.34 23.00 101.00
C 23.87 97.20 20.13 94.77 21.00 91.00
C 43.03 95.56 80.75 79.44 92.00 105.00
C 99.19 107.98 104.55 113.19 111.75 121.25 C 118.96 129.31 124.15 132.01 131.00 121.00
C 127.22 122.87 125.27 128.21 121.00 129.00
C 107.20 117.56 101.00 103.68 85.25 93.75 C 69.49 83.83 38.61 90.57 20.00 90.00
C 19.10 94.42 21.81 97.89 22.00 102.00
C 38.46 102.24 55.35 100.07 70.00 107.00 Z"/>
</g>
<g fill="None" fill-opacity="0.0" stroke="#FCF8D8" stroke-opacity="1.00" stroke-width="0.3"><path d="
M 144.00 176.00 
C 150.51 178.00 163.57 177.82 169.77 176.77 C 175.97 175.73 185.18 164.40 181.00 163.00
C 177.18 163.34 173.03 162.29 170.00 162.00
C 158.69 162.00 148.75 157.34 141.00 149.00
C 142.96 146.30 146.90 137.99 151.23 139.79 C 155.56 141.58 160.25 148.16 166.00 147.00
C 164.49 143.68 158.98 146.34 155.75 141.25 C 152.53 136.15 147.00 139.35 143.00 141.00
C 148.18 131.13 157.63 124.13 167.00 117.00
C 149.11 121.19 139.37 145.32 126.00 156.00
C 122.65 152.47 114.63 148.64 118.00 143.00
C 118.98 140.73 121.43 139.57 123.00 138.00
C 134.60 124.43 147.54 107.53 165.00 103.00
C 168.87 102.00 173.48 102.00 178.00 102.00
C 182.77 102.00 194.98 104.29 199.00 102.00
C 199.41 100.07 200.39 97.87 201.00 96.00
C 198.74 96.54 198.88 99.17 199.00 101.00
C 186.44 100.50 169.83 100.53 158.69 103.69 C 147.56 106.86 143.89 117.63 134.00 120.00
C 131.67 128.07 124.10 133.36 118.70 140.70 C 113.31 148.05 120.54 156.12 129.00 158.00
C 128.31 151.70 137.69 143.64 143.00 142.00
C 141.27 144.94 138.13 147.83 138.00 152.00
C 145.89 152.51 149.24 159.88 156.98 161.02 C 164.71 162.17 172.59 165.15 181.00 164.00
C 175.28 178.42 157.34 178.48 144.00 176.00 Z"/>
</g>
<g fill="None" fill-opacity="0.0" stroke="#E7CD86" stroke-opacity="1.00" stroke-width="0.3"><path d="
M 165.00 103.00 
C 169.06 102.46 174.55 102.33 178.00 102.00
C 173.48 102.00 168.87 102.00 165.00 103.00 Z"/>
</g>
<g fill="None" fill-opacity="0.0" stroke="#B78C15" stroke-opacity="1.00" stroke-width="0.3"><path d="
M 165.00 103.00 
C 147.54 107.53 134.60 124.43 123.00 138.00
C 121.87 139.33 118.67 141.72 118.00 143.00
C 114.63 148.64 122.65 152.47 126.00 156.00
C 139.37 145.32 149.11 121.19 167.00 117.00
C 167.47 116.89 168.00 117.00 168.00 117.00
C 170.05 115.48 173.27 116.00 176.00 116.00
C 181.09 116.00 188.11 117.29 193.00 116.00
C 199.29 114.35 197.92 107.14 199.00 102.00
C 194.98 104.29 182.77 102.00 178.00 102.00
C 174.55 102.33 169.06 102.46 165.00 103.00 Z"/>
</g>
<g fill="None" fill-opacity="0.0" stroke="#EDD88B" stroke-opacity="1.00" stroke-width="0.3"><path d="
M 131.00 120.00 
C 128.93 114.72 123.04 111.04 119.00 107.00
C 122.63 111.25 128.05 115.39 131.00 120.00 Z"/>
</g>
<g fill="None" fill-opacity="0.0" stroke="#FBF5D1" stroke-opacity="1.00" stroke-width="0.3"><path d="
M 56.00 148.00 
C 65.77 146.30 73.66 137.42 80.00 130.00
C 83.64 125.74 93.08 113.15 98.00 115.00
C 101.30 116.24 102.78 120.70 106.00 122.00
C 101.09 127.80 95.96 133.30 91.00 139.00
C 85.99 144.86 80.16 151.42 74.00 156.00
C 67.75 160.65 61.86 162.00 54.00 162.00
C 50.21 164.16 44.29 162.26 40.00 164.00
C 40.92 171.14 47.63 175.59 54.00 177.00
C 52.67 174.02 41.69 172.04 43.00 165.00
C 50.02 165.17 59.66 161.54 65.00 165.00
C 80.78 154.30 93.18 136.48 108.00 124.00
C 106.01 118.56 100.80 111.59 94.00 113.00
C 89.90 120.60 80.01 124.04 75.77 131.77 C 71.53 139.50 61.04 142.65 56.00 148.00 Z"/>
</g>
<g fill="None" fill-opacity="0.0" stroke="#C6AD62" stroke-opacity="1.00" stroke-width="0.3"><path d="
M 80.00 130.00 
C 83.43 126.57 93.14 114.33 98.00 115.00
C 93.08 113.15 83.64 125.74 80.00 130.00 Z"/>
</g>
<g fill="None" fill-opacity="0.0" stroke="#FEFACE" stroke-opacity="1.00" stroke-width="0.3"><path d="
M 210.00 121.00 
C 211.03 118.61 211.57 116.91 212.00 114.00
C 211.47 115.92 210.61 118.74 210.00 121.00 Z"/>
</g>
<g fill="None" fill-opacity="0.0" stroke="#B78B11" stroke-opacity="1.00" stroke-width="0.3"><path d="
M 80.00 130.00 
C 73.66 137.42 65.77 146.30 56.00 148.00
C 55.51 148.08 54.50 148.00 54.00 148.00
C 49.38 148.00 44.61 148.35 40.00 148.00
C 39.22 149.94 36.57 148.61 35.00 149.00
C 34.20 162.35 43.35 162.00 54.00 162.00
C 61.86 162.00 67.75 160.65 74.00 156.00
C 79.79 150.96 85.59 144.41 91.00 139.00
C 95.96 133.30 101.09 127.80 106.00 122.00
C 102.78 120.70 101.30 116.24 98.00 115.00
C 93.14 114.33 83.43 126.57 80.00 130.00 Z"/>
</g>
<g fill="None" fill-opacity="0.0" stroke="#FDF6D0" stroke-opacity="1.00" stroke-width="0.3"><path d="
M 40.00 148.00 
C 44.61 148.35 49.38 148.00 54.00 148.00
C 46.85 146.07 34.73 149.72 33.93 140.07 C 33.13 130.42 28.18 127.51 29.00 118.00
C 45.39 115.54 56.89 119.27 70.00 126.00
C 65.19 122.43 62.21 115.99 55.00 116.00 C 47.79 116.01 38.63 115.16 31.01 116.01 C 23.38 116.86 28.67 128.03 30.22 133.78 C 31.78 139.52 32.48 147.42 40.00 148.00 Z"/>
</g>
<g fill="None" fill-opacity="0.0" stroke="#D8C089" stroke-opacity="1.00" stroke-width="0.3"><path d="
M 168.00 117.00 
C 170.67 117.00 173.33 117.00 176.00 117.00
C 175.96 117.00 176.00 116.00 176.00 116.00
C 173.27 116.00 170.05 115.48 168.00 117.00 Z"/>
</g>
<g fill="None" fill-opacity="0.0" stroke="#FBF3C8" stroke-opacity="1.00" stroke-width="0.3"><path d="
M 176.00 117.00 
C 182.00 117.00 188.00 117.00 194.00 117.00
C 194.27 126.70 189.62 129.80 188.67 139.67 C 187.73 149.54 175.22 146.25 168.00 148.00
C 171.84 148.47 183.69 149.79 187.00 148.00
C 191.16 137.71 193.93 126.88 196.00 116.00
C 195.07 115.78 193.91 116.28 193.00 116.00
C 188.11 117.29 181.09 116.00 176.00 116.00
C 176.00 116.00 175.96 117.00 176.00 117.00 Z"/>
</g>
<g fill="None" fill-opacity="0.0" stroke="#FEFEFC" stroke-opacity="1.00" stroke-width="0.3"><path d="
M 166.00 147.00 
C 166.52 147.14 167.02 147.88 168.00 148.00
C 175.22 146.25 187.73 149.54 188.67 139.67 C 189.62 129.80 194.27 126.70 194.00 117.00
C 188.00 117.00 182.00 117.00 176.00 117.00
C 173.33 117.00 170.67 117.00 168.00 117.00
C 168.00 117.00 167.47 116.89 167.00 117.00
C 157.63 124.13 148.18 131.13 143.00 141.00
C 147.00 139.35 152.53 136.15 155.75 141.25 C 158.98 146.34 164.49 143.68 166.00 147.00 Z"/>
</g>
<g fill="None" fill-opacity="0.0" stroke="#DDC984" stroke-opacity="1.00" stroke-width="0.3"><path d="
M 118.00 143.00 
C 118.67 141.72 121.87 139.33 123.00 138.00
C 121.43 139.57 118.98 140.73 118.00 143.00 Z"/>
</g>
<g fill="None" fill-opacity="0.0" stroke="#C3AB5B" stroke-opacity="1.00" stroke-width="0.3"><path d="
M 74.00 156.00 
C 80.16 151.42 85.99 144.86 91.00 139.00
C 85.59 144.41 79.79 150.96 74.00 156.00 Z"/>
</g>
<g fill="None" fill-opacity="0.0" stroke="#B88C16" stroke-opacity="1.00" stroke-width="0.3"><path d="
M 170.00 162.00 
C 173.62 162.00 177.40 161.67 181.00 162.00
C 186.85 161.87 186.03 152.24 187.00 148.00
C 183.69 149.79 171.84 148.47 168.00 148.00
C 167.02 147.88 166.52 147.14 166.00 147.00
C 160.25 148.16 155.56 141.58 151.23 139.79 C 146.90 137.99 142.96 146.30 141.00 149.00
C 148.75 157.34 158.69 162.00 170.00 162.00 Z"/>
</g>
<g fill="None" fill-opacity="0.0" stroke="#FEFBD2" stroke-opacity="1.00" stroke-width="0.3"><path d="
M 169.00 193.00 
C 163.35 193.70 156.87 192.47 152.00 192.00
C 145.20 192.00 136.60 190.18 131.23 186.77 C 125.86 183.36 120.57 180.06 116.75 175.25 C 112.94 170.44 106.76 166.93 103.75 162.25 C 100.74 157.57 92.71 154.16 92.00 149.00
C 91.18 156.19 105.40 164.18 110.23 170.77 C 115.06 177.36 125.35 185.49 133.75 189.25 C 142.16 193.00 159.55 196.85 169.00 193.00 Z"/>
</g>
<g fill="None" fill-opacity="0.0" stroke="#D9C689" stroke-opacity="1.00" stroke-width="0.3"><path d="
M 181.00 163.00 
C 181.00 163.00 180.99 162.00 181.00 162.00
C 177.40 161.67 173.62 162.00 170.00 162.00
C 173.03 162.29 177.18 163.34 181.00 163.00 Z"/>
</g>
<g fill="None" fill-opacity="0.0" stroke="#FCF7D0" stroke-opacity="1.00" stroke-width="0.3"><path d="
M 78.00 177.00 
C 81.07 176.20 83.18 175.35 86.00 174.00
C 88.72 172.38 93.61 166.03 97.00 166.00
C 100.92 166.49 102.52 171.35 106.00 173.00
C 107.41 175.32 102.69 177.23 105.00 179.00
C 113.83 177.98 117.87 186.91 125.00 190.00
C 125.17 190.07 126.98 190.97 127.00 191.00
C 120.77 186.22 115.18 178.24 107.00 177.00
C 107.67 170.87 99.40 162.51 93.70 166.70 C 87.99 170.88 84.10 174.34 78.00 177.00 Z"/>
</g>
<g fill="None" fill-opacity="0.0" stroke="#EED687" stroke-opacity="1.00" stroke-width="0.3"><path d="
M 86.00 174.00 
C 88.54 172.79 94.84 166.22 97.00 166.00
C 93.61 166.03 88.72 172.38 86.00 174.00 Z"/>
</g>
<g fill="None" fill-opacity="0.0" stroke="#F0D888" stroke-opacity="1.00" stroke-width="0.3"><path d="
M 42.00 188.00 
C 37.70 185.11 32.06 179.20 29.00 175.00
C 31.84 179.94 36.76 185.44 42.00 188.00 Z"/>
</g>
<g fill="None" fill-opacity="0.0" stroke="#B78C10" stroke-opacity="1.00" stroke-width="0.3"><path d="
M 81.00 192.00 
C 88.67 192.00 97.44 191.73 105.00 192.00 C 112.56 192.27 121.44 192.16 125.00 190.00
C 117.87 186.91 113.83 177.98 105.00 179.00
C 96.58 179.97 89.21 189.97 81.00 192.00 Z"/>
</g>
<g fill="None" fill-opacity="0.0" stroke="#DDC67E" stroke-opacity="1.00" stroke-width="0.3"><path d="
M 81.00 192.00 
C 75.33 192.00 69.67 192.00 64.00 192.00
C 69.84 192.57 78.48 193.80 85.00 193.00 C 91.52 192.20 100.99 194.24 107.00 193.00 C 113.01 191.76 123.03 196.10 127.00 192.00
C 127.00 192.00 127.20 191.40 127.00 191.00
C 126.98 190.97 125.17 190.07 125.00 190.00
C 121.44 192.16 112.56 192.27 105.00 192.00 C 97.44 191.73 88.67 192.00 81.00 192.00 Z"/>
</g>
<g fill="None" fill-opacity="0.0" stroke="#E9D890" stroke-opacity="1.00" stroke-width="0.3"><path d="
M 169.00 193.00 
C 170.11 192.86 170.34 192.23 171.00 192.00
C 164.88 192.76 158.17 192.00 152.00 192.00
C 156.87 192.47 163.35 193.70 169.00 193.00 Z"/>
</g>
<g fill="#FDFEFC" fill-opacity="1.00" stroke="None">
<path d="
M 0.00 205.00 
L 228.00 205.00
L 228.00 0.00
L 0.00 0.00
L 0.00 205.00
M 125.00 5.00 
C 141.66 6.32 158.19 19.11 168.00 32.00
C 163.44 34.05 158.56 34.95 154.00 37.00
C 125.93 1.48 62.38 19.75 54.00 63.00
C 53.53 64.63 53.62 66.37 53.00 68.00
C 49.17 67.03 38.03 70.16 39.00 66.00
C 37.60 56.03 46.12 44.97 50.31 36.31 C 54.49 27.64 63.58 22.16 71.23 16.23 C 78.88 10.30 91.04 5.59 101.00 5.00
C 102.87 4.73 105.50 4.05 108.00 4.00
C 111.00 3.94 114.00 4.00 117.00 4.00
C 119.95 4.00 122.73 4.56 125.00 5.00
M 189.00 35.00 
C 186.65 46.15 185.60 58.29 183.00 69.00
C 174.80 55.74 164.84 69.84 157.75 77.75 C 150.66 85.67 142.86 95.36 135.00 103.00
C 126.88 95.38 104.14 82.85 120.00 72.00
C 125.86 73.90 128.70 81.85 135.00 83.00
C 144.52 72.16 155.66 62.49 164.00 51.00
C 161.43 48.77 157.62 46.47 157.00 43.00
C 167.59 40.03 177.92 36.05 189.00 35.00
M 131.00 120.00 
C 131.23 120.35 131.00 121.00 131.00 121.00
C 124.15 132.01 118.96 129.31 111.75 121.25 C 104.55 113.19 99.19 107.98 92.00 105.00
C 80.75 79.44 43.03 95.56 21.00 91.00
C 20.13 94.77 23.87 97.20 23.00 101.00
C 38.32 103.34 58.34 95.42 70.00 107.00
C 73.20 108.51 82.63 112.63 81.97 118.03 C 81.32 123.43 75.10 128.62 70.00 126.00
C 56.89 119.27 45.39 115.54 29.00 118.00
C 28.18 127.51 33.13 130.42 33.93 140.07 C 34.73 149.72 46.85 146.07 54.00 148.00
C 54.50 148.00 55.51 148.08 56.00 148.00
C 61.04 142.65 71.53 139.50 75.77 131.77 C 80.01 124.04 89.90 120.60 94.00 113.00
C 100.80 111.59 106.01 118.56 108.00 124.00
C 93.18 136.48 80.78 154.30 65.00 165.00
C 59.66 161.54 50.02 165.17 43.00 165.00
C 41.69 172.04 52.67 174.02 54.00 177.00
C 62.19 178.81 69.53 179.19 78.00 177.00
C 84.10 174.34 87.99 170.88 93.70 166.70 C 99.40 162.51 107.67 170.87 107.00 177.00
C 115.18 178.24 120.77 186.22 127.00 191.00
C 127.20 191.40 127.00 192.00 127.00 192.00
C 128.24 193.66 116.53 194.45 112.00 194.00 C 107.47 193.55 97.50 194.12 92.00 194.00 C 86.50 193.88 78.89 193.82 73.00 194.00 C 67.11 194.18 59.93 192.52 54.00 193.00 C 48.07 193.48 44.40 188.09 39.00 190.00
C 29.87 181.21 23.95 168.15 20.67 155.33 C 17.39 142.51 12.11 124.45 9.00 112.00 C 5.90 99.54 -3.91 76.04 14.01 73.01 C 31.93 69.97 52.42 75.01 69.00 73.00 C 85.58 70.99 95.27 81.68 105.75 91.25 C 116.23 100.81 126.35 109.68 131.00 120.00
M 212.00 114.00 
C 211.57 116.91 211.03 118.61 210.00 121.00
C 199.06 146.34 202.18 181.33 171.00 192.00
C 170.34 192.23 170.11 192.86 169.00 193.00
C 159.55 196.85 142.16 193.00 133.75 189.25 C 125.35 185.49 115.06 177.36 110.23 170.77 C 105.40 164.18 91.18 156.19 92.00 149.00
C 92.51 144.52 96.64 142.62 99.00 139.00
C 115.07 149.09 125.39 170.85 144.00 176.00
C 157.34 178.48 175.28 178.42 181.00 164.00
C 172.59 165.15 164.71 162.17 156.98 161.02 C 149.24 159.88 145.89 152.51 138.00 152.00
C 138.13 147.83 141.27 144.94 143.00 142.00
C 137.69 143.64 128.31 151.70 129.00 158.00
C 120.54 156.12 113.31 148.05 118.70 140.70 C 124.10 133.36 131.67 128.07 134.00 120.00
C 143.89 117.63 147.56 106.86 158.69 103.69 C 169.83 100.53 186.44 100.50 199.00 101.00
C 198.88 99.17 198.74 96.54 201.00 96.00
C 201.36 94.89 201.67 93.47 202.00 92.00
C 201.85 91.02 202.12 89.98 202.00 89.00
C 188.17 88.33 173.01 90.33 160.00 88.00
C 158.82 86.14 164.52 75.07 169.25 74.25 C 173.98 73.43 186.73 73.89 193.00 74.00 C 199.27 74.11 207.64 72.15 213.75 76.25 C 219.86 80.35 217.42 87.95 216.22 94.22 C 215.02 100.49 212.94 107.58 212.00 114.00 Z"/>
</g>
<g fill="#93CFAC" fill-opacity="1.00" stroke="None">
<path d="
M 101.00 5.00 
C 103.32 4.86 106.36 4.16 108.00 4.00
C 105.50 4.05 102.87 4.73 101.00 5.00 Z"/>
</g>
<g fill="#1A8246" fill-opacity="1.00" stroke="None">
<path d="
M 101.00 5.00 
C 91.04 5.59 78.88 10.30 71.23 16.23 C 63.58 22.16 54.49 27.64 50.31 36.31 C 46.12 44.97 37.60 56.03 39.00 66.00
C 41.87 70.37 52.51 66.46 54.00 63.00
C 62.38 19.75 125.93 1.48 154.00 37.00
C 158.56 34.95 163.44 34.05 168.00 32.00
C 158.19 19.11 141.66 6.32 125.00 5.00
C 122.40 4.79 118.93 4.19 117.00 4.00
C 114.00 4.00 111.00 3.94 108.00 4.00
C 106.36 4.16 103.32 4.86 101.00 5.00 Z"/>
</g>
<g fill="#A3D9B9" fill-opacity="1.00" stroke="None">
<path d="
M 125.00 5.00 
C 122.73 4.56 119.95 4.00 117.00 4.00
C 118.93 4.19 122.40 4.79 125.00 5.00 Z"/>
</g>
<g fill="#1B8246" fill-opacity="1.00" stroke="None">
<path d="
M 189.00 35.00 
C 177.92 36.05 167.59 40.03 157.00 43.00
C 157.62 46.47 161.43 48.77 164.00 51.00
C 155.66 62.49 144.52 72.16 135.00 83.00
C 128.70 81.85 125.86 73.90 120.00 72.00
C 104.14 82.85 126.88 95.38 135.00 103.00
C 142.86 95.36 150.66 85.67 157.75 77.75 C 164.84 69.84 174.80 55.74 183.00 69.00
C 185.60 58.29 186.65 46.15 189.00 35.00 Z"/>
</g>
<g fill="#8EC4A5" fill-opacity="1.00" stroke="None">
<path d="
M 39.00 66.00 
C 38.03 70.16 49.17 67.03 53.00 68.00
C 53.62 66.37 53.53 64.63 54.00 63.00
C 52.51 66.46 41.87 70.37 39.00 66.00 Z"/>
</g>
<g fill="#FEFBD6" fill-opacity="1.00" stroke="None">
<path d="
M 127.00 192.00 
C 123.03 196.10 113.01 191.76 107.00 193.00 C 100.99 194.24 91.52 192.20 85.00 193.00 C 78.48 193.80 69.84 192.57 64.00 192.00
C 56.11 192.00 48.91 191.38 42.00 188.00
C 36.76 185.44 31.84 179.94 29.00 175.00
C 20.99 161.08 20.89 149.87 16.02 133.98 C 11.16 118.08 9.25 109.37 5.07 90.93 C 0.89 72.49 28.61 72.40 43.00 74.00 C 57.39 75.60 79.14 70.98 90.74 80.26 C 102.35 89.53 109.54 95.92 119.00 107.00
C 123.04 111.04 128.93 114.72 131.00 120.00
C 126.35 109.68 116.23 100.81 105.75 91.25 C 95.27 81.68 85.58 70.99 69.00 73.00 C 52.42 75.01 31.93 69.97 14.01 73.01 C -3.91 76.04 5.90 99.54 9.00 112.00 C 12.11 124.45 17.39 142.51 20.67 155.33 C 23.95 168.15 29.87 181.21 39.00 190.00
C 44.40 188.09 48.07 193.48 54.00 193.00 C 59.93 192.52 67.11 194.18 73.00 194.00 C 78.89 193.82 86.50 193.88 92.00 194.00 C 97.50 194.12 107.47 193.55 112.00 194.00 C 116.53 194.45 128.24 193.66 127.00 192.00 Z"/>
</g>
<g fill="#E3B72C" fill-opacity="1.00" stroke="None">
<path d="
M 29.00 175.00 
C 32.06 179.20 37.70 185.11 42.00 188.00
C 48.91 191.38 56.11 192.00 64.00 192.00
C 69.67 192.00 75.33 192.00 81.00 192.00
C 89.21 189.97 96.58 179.97 105.00 179.00
C 102.69 177.23 107.41 175.32 106.00 173.00
C 102.52 171.35 100.92 166.49 97.00 166.00
C 94.84 166.22 88.54 172.79 86.00 174.00
C 83.18 175.35 81.07 176.20 78.00 177.00
C 69.53 179.19 62.19 178.81 54.00 177.00
C 47.63 175.59 40.92 171.14 40.00 164.00
C 44.29 162.26 50.21 164.16 54.00 162.00
C 43.35 162.00 34.20 162.35 35.00 149.00
C 36.57 148.61 39.22 149.94 40.00 148.00
C 32.48 147.42 31.78 139.52 30.22 133.78 C 28.67 128.03 23.38 116.86 31.01 116.01 C 38.63 115.16 47.79 116.01 55.00 116.00 C 62.21 115.99 65.19 122.43 70.00 126.00
C 75.10 128.62 81.32 123.43 81.97 118.03 C 82.63 112.63 73.20 108.51 70.00 107.00
C 55.35 100.07 38.46 102.24 22.00 102.00
C 21.81 97.89 19.10 94.42 20.00 90.00
C 38.61 90.57 69.49 83.83 85.25 93.75 C 101.00 103.68 107.20 117.56 121.00 129.00
C 125.27 128.21 127.22 122.87 131.00 121.00
C 131.00 121.00 131.23 120.35 131.00 120.00
C 128.05 115.39 122.63 111.25 119.00 107.00
C 109.54 95.92 102.35 89.53 90.74 80.26 C 79.14 70.98 57.39 75.60 43.00 74.00 C 28.61 72.40 0.89 72.49 5.07 90.93 C 9.25 109.37 11.16 118.08 16.02 133.98 C 20.89 149.87 20.99 161.08 29.00 175.00 Z"/>
</g>
<g fill="#E3B72C" fill-opacity="1.00" stroke="None">
<path d="
M 160.00 88.00 
C 174.67 88.00 189.33 88.00 204.00 88.00
C 202.63 89.05 203.77 91.44 202.00 92.00
C 201.67 93.47 201.36 94.89 201.00 96.00
C 200.39 97.87 199.41 100.07 199.00 102.00
C 197.92 107.14 199.29 114.35 193.00 116.00
C 193.91 116.28 195.07 115.78 196.00 116.00
C 193.93 126.88 191.16 137.71 187.00 148.00
C 186.03 152.24 186.85 161.87 181.00 162.00
C 180.99 162.00 181.00 163.00 181.00 163.00
C 185.18 164.40 175.97 175.73 169.77 176.77 C 163.57 177.82 150.51 178.00 144.00 176.00
C 125.39 170.85 115.07 149.09 99.00 139.00
C 96.64 142.62 92.51 144.52 92.00 149.00
C 92.71 154.16 100.74 157.57 103.75 162.25 C 106.76 166.93 112.94 170.44 116.75 175.25 C 120.57 180.06 125.86 183.36 131.23 186.77 C 136.60 190.18 145.20 192.00 152.00 192.00
C 158.17 192.00 164.88 192.76 171.00 192.00
C 202.18 181.33 199.06 146.34 210.00 121.00
C 210.61 118.74 211.47 115.92 212.00 114.00
C 212.94 107.58 215.02 100.49 216.22 94.22 C 217.42 87.95 219.86 80.35 213.75 76.25 C 207.64 72.15 199.27 74.11 193.00 74.00 C 186.73 73.89 173.98 73.43 169.25 74.25 C 164.52 75.07 158.82 86.14 160.00 88.00 Z"/>
</g>
<g fill="#FFFDD8" fill-opacity="1.00" stroke="None">
<path d="
M 202.00 92.00 
C 203.77 91.44 202.63 89.05 204.00 88.00
C 189.33 88.00 174.67 88.00 160.00 88.00
C 173.01 90.33 188.17 88.33 202.00 89.00
C 202.12 89.98 201.85 91.02 202.00 92.00 Z"/>
</g>
<g fill="#FEFCD9" fill-opacity="1.00" stroke="None">
<path d="
M 70.00 107.00 
C 58.34 95.42 38.32 103.34 23.00 101.00
C 23.87 97.20 20.13 94.77 21.00 91.00
C 43.03 95.56 80.75 79.44 92.00 105.00
C 99.19 107.98 104.55 113.19 111.75 121.25 C 118.96 129.31 124.15 132.01 131.00 121.00
C 127.22 122.87 125.27 128.21 121.00 129.00
C 107.20 117.56 101.00 103.68 85.25 93.75 C 69.49 83.83 38.61 90.57 20.00 90.00
C 19.10 94.42 21.81 97.89 22.00 102.00
C 38.46 102.24 55.35 100.07 70.00 107.00 Z"/>
</g>
<g fill="#FCF8D8" fill-opacity="1.00" stroke="None">
<path d="
M 144.00 176.00 
C 150.51 178.00 163.57 177.82 169.77 176.77 C 175.97 175.73 185.18 164.40 181.00 163.00
C 177.18 163.34 173.03 162.29 170.00 162.00
C 158.69 162.00 148.75 157.34 141.00 149.00
C 142.96 146.30 146.90 137.99 151.23 139.79 C 155.56 141.58 160.25 148.16 166.00 147.00
C 164.49 143.68 158.98 146.34 155.75 141.25 C 152.53 136.15 147.00 139.35 143.00 141.00
C 148.18 131.13 157.63 124.13 167.00 117.00
C 149.11 121.19 139.37 145.32 126.00 156.00
C 122.65 152.47 114.63 148.64 118.00 143.00
C 118.98 140.73 121.43 139.57 123.00 138.00
C 134.60 124.43 147.54 107.53 165.00 103.00
C 168.87 102.00 173.48 102.00 178.00 102.00
C 182.77 102.00 194.98 104.29 199.00 102.00
C 199.41 100.07 200.39 97.87 201.00 96.00
C 198.74 96.54 198.88 99.17 199.00 101.00
C 186.44 100.50 169.83 100.53 158.69 103.69 C 147.56 106.86 143.89 117.63 134.00 120.00
C 131.67 128.07 124.10 133.36 118.70 140.70 C 113.31 148.05 120.54 156.12 129.00 158.00
C 128.31 151.70 137.69 143.64 143.00 142.00
C 141.27 144.94 138.13 147.83 138.00 152.00
C 145.89 152.51 149.24 159.88 156.98 161.02 C 164.71 162.17 172.59 165.15 181.00 164.00
C 175.28 178.42 157.34 178.48 144.00 176.00 Z"/>
</g>
<g fill="#E7CD86" fill-opacity="1.00" stroke="None">
<path d="
M 165.00 103.00 
C 169.06 102.46 174.55 102.33 178.00 102.00
C 173.48 102.00 168.87 102.00 165.00 103.00 Z"/>
</g>
<g fill="#B78C15" fill-opacity="1.00" stroke="None">
<path d="
M 165.00 103.00 
C 147.54 107.53 134.60 124.43 123.00 138.00
C 121.87 139.33 118.67 141.72 118.00 143.00
C 114.63 148.64 122.65 152.47 126.00 156.00
C 139.37 145.32 149.11 121.19 167.00 117.00
C 167.47 116.89 168.00 117.00 168.00 117.00
C 170.05 115.48 173.27 116.00 176.00 116.00
C 181.09 116.00 188.11 117.29 193.00 116.00
C 199.29 114.35 197.92 107.14 199.00 102.00
C 194.98 104.29 182.77 102.00 178.00 102.00
C 174.55 102.33 169.06 102.46 165.00 103.00 Z"/>
</g>
<g fill="#EDD88B" fill-opacity="1.00" stroke="None">
<path d="
M 131.00 120.00 
C 128.93 114.72 123.04 111.04 119.00 107.00
C 122.63 111.25 128.05 115.39 131.00 120.00 Z"/>
</g>
<g fill="#FBF5D1" fill-opacity="1.00" stroke="None">
<path d="
M 56.00 148.00 
C 65.77 146.30 73.66 137.42 80.00 130.00
C 83.64 125.74 93.08 113.15 98.00 115.00
C 101.30 116.24 102.78 120.70 106.00 122.00
C 101.09 127.80 95.96 133.30 91.00 139.00
C 85.99 144.86 80.16 151.42 74.00 156.00
C 67.75 160.65 61.86 162.00 54.00 162.00
C 50.21 164.16 44.29 162.26 40.00 164.00
C 40.92 171.14 47.63 175.59 54.00 177.00
C 52.67 174.02 41.69 172.04 43.00 165.00
C 50.02 165.17 59.66 161.54 65.00 165.00
C 80.78 154.30 93.18 136.48 108.00 124.00
C 106.01 118.56 100.80 111.59 94.00 113.00
C 89.90 120.60 80.01 124.04 75.77 131.77 C 71.53 139.50 61.04 142.65 56.00 148.00 Z"/>
</g>
<g fill="#C6AD62" fill-opacity="1.00" stroke="None">
<path d="
M 80.00 130.00 
C 83.43 126.57 93.14 114.33 98.00 115.00
C 93.08 113.15 83.64 125.74 80.00 130.00 Z"/>
</g>
<g fill="#FEFACE" fill-opacity="1.00" stroke="None">
<path d="
M 210.00 121.00 
C 211.03 118.61 211.57 116.91 212.00 114.00
C 211.47 115.92 210.61 118.74 210.00 121.00 Z"/>
</g>
<g fill="#B78B11" fill-opacity="1.00" stroke="None">
<path d="
M 80.00 130.00 
C 73.66 137.42 65.77 146.30 56.00 148.00
C 55.51 148.08 54.50 148.00 54.00 148.00
C 49.38 148.00 44.61 148.35 40.00 148.00
C 39.22 149.94 36.57 148.61 35.00 149.00
C 34.20 162.35 43.35 162.00 54.00 162.00
C 61.86 162.00 67.75 160.65 74.00 156.00
C 79.79 150.96 85.59 144.41 91.00 139.00
C 95.96 133.30 101.09 127.80 106.00 122.00
C 102.78 120.70 101.30 116.24 98.00 115.00
C 93.14 114.33 83.43 126.57 80.00 130.00 Z"/>
</g>
<g fill="#FDF6D0" fill-opacity="1.00" stroke="None">
<path d="
M 40.00 148.00 
C 44.61 148.35 49.38 148.00 54.00 148.00
C 46.85 146.07 34.73 149.72 33.93 140.07 C 33.13 130.42 28.18 127.51 29.00 118.00
C 45.39 115.54 56.89 119.27 70.00 126.00
C 65.19 122.43 62.21 115.99 55.00 116.00 C 47.79 116.01 38.63 115.16 31.01 116.01 C 23.38 116.86 28.67 128.03 30.22 133.78 C 31.78 139.52 32.48 147.42 40.00 148.00 Z"/>
</g>
<g fill="#D8C089" fill-opacity="1.00" stroke="None">
<path d="
M 168.00 117.00 
C 170.67 117.00 173.33 117.00 176.00 117.00
C 175.96 117.00 176.00 116.00 176.00 116.00
C 173.27 116.00 170.05 115.48 168.00 117.00 Z"/>
</g>
<g fill="#FBF3C8" fill-opacity="1.00" stroke="None">
<path d="
M 176.00 117.00 
C 182.00 117.00 188.00 117.00 194.00 117.00
C 194.27 126.70 189.62 129.80 188.67 139.67 C 187.73 149.54 175.22 146.25 168.00 148.00
C 171.84 148.47 183.69 149.79 187.00 148.00
C 191.16 137.71 193.93 126.88 196.00 116.00
C 195.07 115.78 193.91 116.28 193.00 116.00
C 188.11 117.29 181.09 116.00 176.00 116.00
C 176.00 116.00 175.96 117.00 176.00 117.00 Z"/>
</g>
<g fill="#FEFEFC" fill-opacity="1.00" stroke="None">
<path d="
M 166.00 147.00 
C 166.52 147.14 167.02 147.88 168.00 148.00
C 175.22 146.25 187.73 149.54 188.67 139.67 C 189.62 129.80 194.27 126.70 194.00 117.00
C 188.00 117.00 182.00 117.00 176.00 117.00
C 173.33 117.00 170.67 117.00 168.00 117.00
C 168.00 117.00 167.47 116.89 167.00 117.00
C 157.63 124.13 148.18 131.13 143.00 141.00
C 147.00 139.35 152.53 136.15 155.75 141.25 C 158.98 146.34 164.49 143.68 166.00 147.00 Z"/>
</g>
<g fill="#DDC984" fill-opacity="1.00" stroke="None">
<path d="
M 118.00 143.00 
C 118.67 141.72 121.87 139.33 123.00 138.00
C 121.43 139.57 118.98 140.73 118.00 143.00 Z"/>
</g>
<g fill="#C3AB5B" fill-opacity="1.00" stroke="None">
<path d="
M 74.00 156.00 
C 80.16 151.42 85.99 144.86 91.00 139.00
C 85.59 144.41 79.79 150.96 74.00 156.00 Z"/>
</g>
<g fill="#B88C16" fill-opacity="1.00" stroke="None">
<path d="
M 170.00 162.00 
C 173.62 162.00 177.40 161.67 181.00 162.00
C 186.85 161.87 186.03 152.24 187.00 148.00
C 183.69 149.79 171.84 148.47 168.00 148.00
C 167.02 147.88 166.52 147.14 166.00 147.00
C 160.25 148.16 155.56 141.58 151.23 139.79 C 146.90 137.99 142.96 146.30 141.00 149.00
C 148.75 157.34 158.69 162.00 170.00 162.00 Z"/>
</g>
<g fill="#FEFBD2" fill-opacity="1.00" stroke="None">
<path d="
M 169.00 193.00 
C 163.35 193.70 156.87 192.47 152.00 192.00
C 145.20 192.00 136.60 190.18 131.23 186.77 C 125.86 183.36 120.57 180.06 116.75 175.25 C 112.94 170.44 106.76 166.93 103.75 162.25 C 100.74 157.57 92.71 154.16 92.00 149.00
C 91.18 156.19 105.40 164.18 110.23 170.77 C 115.06 177.36 125.35 185.49 133.75 189.25 C 142.16 193.00 159.55 196.85 169.00 193.00 Z"/>
</g>
<g fill="#D9C689" fill-opacity="1.00" stroke="None">
<path d="
M 181.00 163.00 
C 181.00 163.00 180.99 162.00 181.00 162.00
C 177.40 161.67 173.62 162.00 170.00 162.00
C 173.03 162.29 177.18 163.34 181.00 163.00 Z"/>
</g>
<g fill="#FCF7D0" fill-opacity="1.00" stroke="None">
<path d="
M 78.00 177.00 
C 81.07 176.20 83.18 175.35 86.00 174.00
C 88.72 172.38 93.61 166.03 97.00 166.00
C 100.92 166.49 102.52 171.35 106.00 173.00
C 107.41 175.32 102.69 177.23 105.00 179.00
C 113.83 177.98 117.87 186.91 125.00 190.00
C 125.17 190.07 126.98 190.97 127.00 191.00
C 120.77 186.22 115.18 178.24 107.00 177.00
C 107.67 170.87 99.40 162.51 93.70 166.70 C 87.99 170.88 84.10 174.34 78.00 177.00 Z"/>
</g>
<g fill="#EED687" fill-opacity="1.00" stroke="None">
<path d="
M 86.00 174.00 
C 88.54 172.79 94.84 166.22 97.00 166.00
C 93.61 166.03 88.72 172.38 86.00 174.00 Z"/>
</g>
<g fill="#F0D888" fill-opacity="1.00" stroke="None">
<path d="
M 42.00 188.00 
C 37.70 185.11 32.06 179.20 29.00 175.00
C 31.84 179.94 36.76 185.44 42.00 188.00 Z"/>
</g>
<g fill="#B78C10" fill-opacity="1.00" stroke="None">
<path d="
M 81.00 192.00 
C 88.67 192.00 97.44 191.73 105.00 192.00 C 112.56 192.27 121.44 192.16 125.00 190.00
C 117.87 186.91 113.83 177.98 105.00 179.00
C 96.58 179.97 89.21 189.97 81.00 192.00 Z"/>
</g>
<g fill="#DDC67E" fill-opacity="1.00" stroke="None">
<path d="
M 81.00 192.00 
C 75.33 192.00 69.67 192.00 64.00 192.00
C 69.84 192.57 78.48 193.80 85.00 193.00 C 91.52 192.20 100.99 194.24 107.00 193.00 C 113.01 191.76 123.03 196.10 127.00 192.00
C 127.00 192.00 127.20 191.40 127.00 191.00
C 126.98 190.97 125.17 190.07 125.00 190.00
C 121.44 192.16 112.56 192.27 105.00 192.00 C 97.44 191.73 88.67 192.00 81.00 192.00 Z"/>
</g>
<g fill="#E9D890" fill-opacity="1.00" stroke="None">
<path d="
M 169.00 193.00 
C 170.11 192.86 170.34 192.23 171.00 192.00
C 164.88 192.76 158.17 192.00 152.00 192.00
C 156.87 192.47 163.35 193.70 169.00 193.00 Z"/>
</g>
</svg>