<svg version="1.0" xmlns="http://www.w3.org/2000/svg" width="677px" height="378px" viewBox="0 0 677 378" preserveAspectRatio="xMidYMid meet">
 <g fill="#ffffff">
  
  <path d="M370.09 260.27 c-2.71 -1.67 -3.54 -3.59 -3.54 -8.36 0 -3.30 0.20 -4.53 0.98 -5.81 1.53 -2.51 3.69 -3.54 7.38 -3.54 6.20 0 8.36 2.41 8.36 9.25 0 4.82 -0.79 6.99 -3.20 8.46 -2.21 1.38 -7.72 1.38 -9.99 0z" data-index="1" style="opacity: 1; visibility: hidden; fill: rgb(121, 40, 202);"></path>
  
  <path d="M477.59 250.58 c-0.59 -0.59 -0.34 -3.15 0.44 -4.87 1.23 -2.56 3.39 -3.64 7.38 -3.64 1.87 0 3.94 0.30 4.62 0.64 1.92 0.98 3.44 3.64 3.44 6.05 l0 2.16 -7.77 0 c-4.28 0 -7.97 -0.15 -8.12 -0.34z" data-index="3" style="opacity: 1; visibility: hidden; fill: rgb(121, 40, 202);"></path>
 </g>
 <g fill="#080707">
  <path d="M208.71 275.08 c-1.43 -0.49 -2.71 -1.03 -2.90 -1.18 -0.15 -0.20 0.30 -1.77 1.08 -3.54 1.28 -3.10 1.43 -3.20 2.41 -2.56 3.15 2.07 7.13 0.74 7.18 -2.41 0 -0.84 -4.18 -10.92 -9.45 -22.83 -2.16 -4.87 -2.41 -4.43 2.51 -4.43 l4.33 0 3.39 8.61 c1.87 4.72 3.54 8.61 3.69 8.61 0.20 0 1.87 -3.84 3.74 -8.46 l3.44 -8.51 4.08 -0.15 c3.15 -0.10 3.99 0 3.79 0.49 -0.15 0.34 -1.53 3.74 -3.05 7.53 -4.82 11.96 -8.71 21.06 -9.89 23.42 -2.80 5.56 -8.12 7.58 -14.37 5.41z" data-index="4"></path>
  <path d="M247.43 265.68 c-2.21 -0.64 -3.89 -2.07 -5.02 -4.13 -0.93 -1.77 -1.08 -3 -1.23 -9.25 l-0.20 -7.28 -1.87 0 c-1.03 0 -2.02 -0.20 -2.16 -0.39 -0.10 -0.20 -0.10 -1.72 0.05 -3.39 l0.30 -3.05 1.77 0.10 1.77 0.10 0.25 -3.20 0.25 -3.20 3.79 -0.15 3.79 -0.15 0.15 3.35 0.15 3.35 3.20 0 3.20 0.05 0.15 3.30 0.15 3.30 -3.49 0 -3.54 0 0.20 6.45 c0.15 6.15 0.20 6.49 1.33 7.43 0.79 0.59 1.62 0.84 2.36 0.69 3.64 -0.89 3.35 -1.08 4.28 1.97 0.49 1.53 0.69 2.95 0.44 3.15 -1.43 1.28 -7.13 1.87 -10.04 0.98z" data-index="5"></path>
  <path d="M288.71 265.49 c-2.76 -0.98 -4.18 -2.07 -5.56 -4.18 -1.67 -2.51 -2.21 -6.20 -2.21 -15.40 l0 -7.77 4.13 0 4.18 0 0.15 9.10 0.15 9.10 1.33 1.28 c2.46 2.51 6.99 1.43 8.76 -2.07 0.49 -1.03 0.79 -3.64 0.89 -9.40 l0.20 -8.02 3.89 0 3.89 0 0 13.78 0 13.78 -3.74 0 c-3.30 0 -3.74 -0.10 -3.99 -0.98 -0.15 -0.54 -0.34 -0.98 -0.39 -0.98 -0.10 0 -1.33 0.54 -2.80 1.23 -2.90 1.38 -6 1.57 -8.86 0.54z" data-index="6"></path>
  <path d="M318.67 265.68 c-2.51 -0.64 -6.79 -2.51 -6.64 -2.90 0.10 -0.20 0.69 -1.57 1.33 -3.10 l1.18 -2.80 2.31 1.23 c4.87 2.56 11.81 2.36 11.81 -0.25 0 -1.43 -0.93 -1.87 -5.81 -2.95 -4.92 -1.08 -7.87 -2.46 -8.95 -4.13 -1.92 -3.15 -1.43 -7.38 1.18 -9.99 2.95 -2.95 9.74 -3.99 15.74 -2.41 4.82 1.28 4.87 1.28 3.64 4.33 -0.59 1.38 -1.13 2.66 -1.18 2.76 -0.10 0.05 -1.28 -0.25 -2.66 -0.69 -3.74 -1.23 -8.17 -1.18 -9.45 0.15 -1.03 0.98 -1.03 1.08 -0.20 1.97 0.54 0.64 2.31 1.23 4.97 1.77 8.22 1.62 10.58 3.64 10.58 8.81 0 2.07 -1.33 4.87 -2.90 6.10 -2.66 2.12 -10.53 3.20 -14.96 2.12z" data-index="7"></path>
  <path d="M347.11 265.44 c-2.51 -0.89 -4.92 -3.59 -5.61 -6.40 -0.30 -1.18 -0.54 -4.82 -0.54 -8.07 l0 -5.90 -1.82 -0.15 -1.87 -0.15 -0.15 -3.05 -0.15 -3.10 2.02 0 1.97 0 0 -2.66 c0 -4.18 0.05 -4.23 4.23 -4.23 l3.64 0 0 1.92 c0 1.03 0.15 2.61 0.30 3.44 l0.34 1.53 3.39 0 3.39 0 -0.15 3.10 -0.15 3.05 -3.30 0.15 -3.35 0.15 0 6.35 c0 6.30 0 6.35 1.33 7.38 0.98 0.79 1.67 0.93 2.80 0.69 2.71 -0.59 2.85 -0.54 3.79 2.21 1.03 3 0.98 3.15 -2.02 3.99 -2.41 0.69 -5.81 0.59 -8.12 -0.25z" data-index="8"></path>
  <path d="M372.20 265.58 c-0.79 -0.30 -2.02 -0.93 -2.66 -1.43 -1.57 -1.23 -2.02 -1.18 -2.02 0.30 0 1.18 -0.10 1.23 -3.44 1.23 l-3.44 0 0 -18.94 0 -18.94 3.69 0 3.69 0 0 6.15 c0 3.39 0.15 6.15 0.30 6.15 0.20 0 1.13 -0.49 2.12 -1.08 2.56 -1.62 9.20 -1.62 12.15 -0.05 5.22 2.80 7.77 8.95 6.59 15.94 -1.13 6.69 -5.61 10.73 -12.20 11.07 -1.82 0.10 -3.94 -0.05 -4.77 -0.39z m6.40 -6.79 c2.12 -1.28 3.20 -3.69 3.20 -6.99 0 -3.25 -1.23 -5.66 -3.49 -6.89 -3.30 -1.77 -7.28 -0.64 -9.30 2.66 -1.33 2.21 -1.33 6.45 0 8.66 2.07 3.35 6.40 4.53 9.59 2.56z" data-index="9" style="opacity: 1;"></path>
  <path d="M397.39 265.58 c-3.89 -1.08 -6.79 -5.56 -6.05 -9.35 0.93 -4.97 4.03 -6.84 11.91 -7.18 l5.51 -0.25 -0.49 -1.33 c-0.64 -1.87 -1.92 -2.95 -4.03 -3.44 -1.97 -0.44 -5.66 0.15 -7.82 1.23 -0.84 0.39 -1.53 0.69 -1.57 0.64 -0.20 -0.25 -2.21 -4.92 -2.21 -5.12 0 -0.44 3.99 -2.12 6.30 -2.61 5.85 -1.23 11.22 -0.20 14.12 2.66 2.66 2.71 3.20 5.36 3.20 15.84 l0 9 -3.44 0 c-3.10 0 -3.44 -0.10 -3.44 -0.98 0 -1.23 -0.05 -1.23 -2.56 0.05 -2.36 1.23 -6.74 1.62 -9.40 0.84z m9.54 -6.59 c0.98 -0.93 1.43 -1.82 1.43 -2.95 0 -1.53 -0.10 -1.62 -2.21 -1.97 -5.85 -0.84 -9.40 1.38 -7.58 4.77 1.23 2.36 5.95 2.46 8.36 0.15z" data-index="10" style="opacity: 1;"></path>
  <path d="M424.70 265.44 c-3.44 -0.93 -5.66 -2.16 -5.36 -2.85 1.82 -4.53 2.02 -4.82 2.76 -4.58 0.44 0.15 2.02 0.69 3.49 1.23 4.82 1.77 9.84 1.03 9.84 -1.38 0 -1.43 -0.98 -1.92 -5.81 -3.05 -6.59 -1.48 -9.35 -3.74 -9.79 -7.87 -0.34 -3.20 1.43 -6.20 4.53 -7.82 2.12 -1.03 3.05 -1.23 6.89 -1.23 4.48 0.05 7.68 0.69 9.25 1.87 0.84 0.59 0.84 0.74 -0.15 3.05 -0.59 1.33 -1.08 2.51 -1.18 2.56 -0.05 0.05 -1.28 -0.30 -2.66 -0.84 -2.95 -1.13 -7.38 -1.28 -8.66 -0.34 -0.54 0.39 -0.84 1.13 -0.69 1.87 0.15 1.28 0.39 1.38 7.87 3.44 5.85 1.62 7.82 4.23 7.13 9.40 -0.34 2.61 -1.62 4.28 -4.33 5.81 -2.71 1.48 -9.10 1.87 -13.14 0.74z" data-index="11" style="opacity: 1;"></path>
  <path d="M482.41 265.73 c-4.33 -1.23 -7.82 -4.03 -9.64 -7.82 -1.53 -3.25 -1.53 -8.71 0.05 -12.30 2.31 -5.26 7.77 -8.36 14.02 -7.87 7.04 0.59 11.81 5.71 12.15 13.19 l0.15 3.20 -10.18 0.15 c-7.08 0.10 -10.23 0.30 -10.23 0.69 0 0.30 0.93 1.48 2.12 2.61 1.57 1.62 2.56 2.16 4.28 2.41 2.56 0.34 6.45 -0.59 7.97 -2.02 0.93 -0.84 1.03 -0.84 2.85 1.33 1.77 2.07 1.82 2.26 1.13 3.10 -0.44 0.44 -1.97 1.43 -3.39 2.12 -2.80 1.38 -8.51 1.97 -11.27 1.23z m9.59 -16.97 c0 -1.08 -2.16 -3.94 -3.44 -4.58 -1.82 -0.93 -4.82 -0.79 -6.64 0.34 -1.57 0.98 -3.35 3.79 -2.90 4.53 0.15 0.20 3.10 0.39 6.64 0.39 5.02 0 6.35 -0.15 6.35 -0.69z" data-index="12" style="opacity: 1;"></path>
  <path d="M508.24 265.09 c-1.67 -0.84 -2.51 -1.72 -3.39 -3.49 -0.98 -2.02 -1.18 -3.25 -1.43 -9.69 l-0.25 -7.38 -1.62 0 -1.67 0 0 -3.20 0 -3.20 1.72 0 1.72 0 0 -2.95 0 -2.95 3.94 0 3.94 0 0 2.95 0 2.95 3.20 0 3.20 0 0 3.20 0 3.20 -3.20 0 -3.20 0 0 6.54 c0 8.27 0.34 8.95 4.18 8.51 l2.51 -0.30 0.84 2.56 c0.44 1.38 0.69 2.66 0.59 2.85 -0.34 0.59 -4.43 1.48 -6.74 1.48 -1.23 0 -3.10 -0.44 -4.33 -1.08z" data-index="13" style="opacity: 1;"></path>
  <path d="M162.36 247.72 l0 -18.01 3.74 0.15 3.74 0.15 6 10.48 c3.35 5.81 6.25 10.53 6.49 10.53 0.44 0.05 1.48 -1.72 8.51 -14.42 2.02 -3.64 3.74 -6.69 3.79 -6.79 0.10 -0.10 1.77 -0.20 3.74 -0.25 l3.59 -0.05 0.15 18.11 0.10 18.06 -3.94 0 -3.94 0 0 -9.64 c0 -7.48 -0.15 -9.59 -0.59 -9.45 -0.34 0.10 -2.51 3.69 -4.82 7.92 l-4.18 7.72 -2.46 -0.10 -2.41 -0.15 -4.23 -7.48 c-2.31 -4.13 -4.48 -7.53 -4.77 -7.53 -0.49 0 -0.64 2.21 -0.64 9.35 l0 9.35 -3.94 0 -3.94 0 0 -17.96z" data-index="14" style="opacity: 1;"></path>
  <path d="M261.11 265.34 c-0.20 -0.15 -0.34 -6.35 -0.34 -13.78 l0 -13.43 3.94 0 3.94 0 0 1.72 c0 0.93 0.25 1.72 0.49 1.72 0.30 0 0.49 -0.20 0.49 -0.49 0 -0.98 3.69 -2.85 5.90 -3.05 l2.21 -0.15 0 3.69 0 3.69 -2.56 0.25 c-1.53 0.15 -2.95 0.64 -3.59 1.23 -2.21 1.97 -2.46 3.20 -2.46 11.32 l0 7.63 -3.84 0 c-2.12 0 -4.03 -0.15 -4.18 -0.34z" data-index="15"></path>
  <path d="M445.27 246.74 l0 -18.94 3.69 0 3.69 0 0 10.58 c0 5.81 0.15 10.58 0.39 10.58 0.20 0 2.56 -2.46 5.26 -5.41 l4.92 -5.36 4.38 -0.05 4.43 0 -1.23 1.38 c-0.69 0.74 -3 3.30 -5.07 5.66 l-3.79 4.33 0.84 1.33 c0.49 0.74 2.85 4.08 5.26 7.43 2.36 3.35 4.48 6.35 4.62 6.74 0.20 0.54 -0.54 0.69 -3.89 0.69 l-4.13 0 -3.30 -4.53 c-1.77 -2.51 -3.59 -5.02 -3.99 -5.56 -0.69 -0.93 -0.74 -0.93 -2.71 0.98 -2.02 1.92 -2.02 1.97 -2.02 5.51 l0 3.59 -3.69 0 -3.69 0 0 -18.94z" data-index="16" style="opacity: 1;"></path>
 </g>
 <g fill="#e5b61a">
  <path d="M301.85 208.07 c-8.81 -1.28 -15.55 -6.15 -19.19 -13.87 -2.46 -5.17 -15.15 -52.64 -15.20 -56.78 -0.05 -3.30 0.69 -4.77 3.35 -6.74 1.33 -0.98 1.92 -1.03 23.57 -1.03 l22.24 0 3.10 1.28 c6.49 2.76 8.41 4.28 20.37 16.43 6.45 6.49 11.71 12 11.71 12.20 0 0.74 -5.61 6.79 -6.15 6.64 -0.25 -0.10 -4.58 -4.43 -9.59 -9.69 -10.23 -10.73 -14.37 -14.46 -17.96 -16.09 -2.46 -1.18 -2.61 -1.18 -21.50 -1.18 -10.48 0 -19.14 0.20 -19.29 0.44 -0.15 0.25 0.25 2.16 0.89 4.28 l1.13 3.89 12.25 0.30 c13.28 0.30 14.81 0.54 19.68 3.35 2.90 1.67 8.07 6.25 8.07 7.13 0 0.34 -1.23 1.97 -2.76 3.64 l-2.71 3.05 -3.05 -2.56 c-1.67 -1.38 -4.38 -3.15 -6 -3.94 -2.90 -1.38 -3.05 -1.38 -12.35 -1.38 -7.23 0 -9.54 0.15 -9.99 0.64 -0.49 0.64 0.20 3.89 2.90 13.14 0.49 1.77 1.18 4.13 1.48 5.31 0.39 1.53 0.79 2.07 1.48 2.07 0.74 0 1.18 0.79 2.12 3.84 l1.18 3.79 7.18 0.15 c5.71 0.10 7.23 0.25 7.23 0.79 0 0.98 -1.62 1.28 -7.68 1.28 -3.94 0 -5.71 0.20 -6.40 0.69 -0.93 0.69 -0.93 0.74 0 2.51 1.28 2.36 4.28 5.02 7.13 6.30 3.49 1.57 13.04 1.82 17.61 0.44 3.79 -1.18 6.99 -3.05 10.18 -6.05 1.23 -1.08 2.61 -1.92 3.05 -1.82 0.44 0.10 1.92 1.43 3.30 2.95 2.41 2.80 2.46 2.85 1.62 4.08 -0.84 1.28 -0.84 1.33 0.15 1.57 1.13 0.30 1.43 1.62 0.34 1.62 -0.34 0 -1.67 0.79 -2.95 1.77 -1.28 0.98 -3.25 2.31 -4.38 2.95 l-2.07 1.18 10.82 0 c8.17 0.05 11.02 0.20 11.66 0.69 0.49 0.34 0.74 0.79 0.54 0.93 -0.44 0.49 -43.69 0.30 -47.13 -0.20z" data-index="17"></path>
  <path d="M363.35 208.07 c-6.59 -0.98 -11.91 -3.25 -16.83 -7.18 -3.15 -2.51 -21.06 -21.11 -21.06 -21.85 0 -0.54 5.12 -6.35 5.61 -6.35 0.20 0 3.10 2.80 6.49 6.30 13.38 13.78 15.45 15.69 19.24 17.52 4.58 2.26 8.22 2.90 14.42 2.66 5.76 -0.30 8.27 -1.23 11.51 -4.48 1.77 -1.77 3.99 -5.07 3.99 -6 0 -0.15 -0.44 -0.25 -0.98 -0.25 -0.93 0 -0.93 -0.10 -0.30 -1.82 0.39 -1.03 1.08 -3.25 1.57 -4.92 0.64 -2.36 1.03 -3.10 1.72 -3.10 0.98 0 1.03 -0.05 4.38 -12.55 2.21 -8.31 2.26 -8.61 1.18 -8.61 -0.89 0 -0.89 0.10 0.64 -5.66 0.69 -2.41 1.18 -3.49 1.82 -3.59 0.93 -0.20 1.38 -1.18 2.76 -6.10 l0.93 -3.35 -15.01 0 c-9.50 0 -14.96 -0.20 -14.96 -0.49 0 -0.25 1.67 -2.36 3.74 -4.67 l3.69 -4.18 13.38 0 c12.50 0 13.48 0.05 15.01 0.98 2.31 1.43 3.54 3.74 3.54 6.64 0 1.57 -1.53 8.07 -4.13 17.71 -2.26 8.41 -5.41 20.02 -6.94 25.83 -3.25 12.30 -5.02 16.29 -8.91 20.57 -5.17 5.76 -9.50 7.53 -18.06 7.43 -3 -0.05 -6.84 -0.25 -8.46 -0.49z" data-index="18"></path>
 </g>
 <g fill="#0e8341">
  <path d="M346.47 141.75 c-3.84 -4.03 -6.99 -7.48 -6.99 -7.68 0 -0.54 5.12 -6.15 5.66 -6.15 0.30 0 2.26 1.77 4.43 3.94 2.16 2.16 4.13 3.94 4.43 3.89 0.44 -0.05 19.53 -20.71 19.83 -21.50 0.05 -0.20 -1.08 -1.38 -2.56 -2.56 -1.48 -1.23 -2.66 -2.41 -2.56 -2.71 0.05 -0.25 0.98 -0.69 2.07 -0.93 1.03 -0.20 4.03 -1.03 6.69 -1.82 2.61 -0.79 5.26 -1.43 5.90 -1.43 0.64 0 1.43 -0.25 1.67 -0.49 0.30 -0.30 1.62 -0.64 3 -0.79 l2.46 -0.30 -1.62 9.74 c-0.89 5.41 -1.77 10.53 -1.92 11.46 l-0.30 1.67 -2.36 -2.31 c-1.23 -1.23 -2.76 -2.26 -3.25 -2.26 -1.53 0.05 -3.69 2.21 -15.50 15.25 -6 6.64 -11.17 12.10 -11.51 12.20 -0.34 0.05 -3.74 -3.15 -7.58 -7.23z" data-index="19"></path>
  <path d="M290.58 123.15 c3.49 -19.43 17.47 -34.44 36.61 -39.31 2.90 -0.74 5.46 -0.93 12.05 -0.93 7.28 0 8.86 0.15 12.30 1.13 5.61 1.62 12.35 5.12 16.88 8.76 4.43 3.54 8.71 8.07 8.12 8.56 -0.20 0.20 -2.36 0.98 -4.72 1.72 l-4.33 1.33 -2.31 -2.16 c-6.74 -6.30 -16.19 -10.23 -24.50 -10.23 -12.50 0 -21.55 3.69 -30.26 12.30 -3.94 3.94 -5.07 5.41 -6.94 9.15 -1.23 2.46 -2.66 6.10 -3.15 8.02 l-0.89 3.49 -4.62 0 -4.58 0 0.34 -1.82z" data-index="20"></path>
 </g>
 <g fill="#b98b04">
  <path d="M318.13 207.68 c0.25 -0.25 1.33 -0.69 2.41 -1.03 3 -0.93 7.08 -3.15 10.04 -5.36 2.41 -1.82 3 -2.02 5.46 -2.02 2.56 0 2.85 0.15 4.67 2.02 1.08 1.13 3.49 3.10 5.36 4.43 l3.39 2.41 -15.89 0 c-9.20 0 -15.74 -0.20 -15.45 -0.44z" data-index="21"></path>
  <path d="M375.15 187.95 c-5.81 -0.69 -10.33 -2.76 -14.61 -6.79 l-2.36 -2.16 2.76 -3.15 c1.53 -1.72 3.10 -3.15 3.44 -3.15 0.39 0 1.92 0.98 3.35 2.16 3.94 3.20 6.54 3.89 14.91 3.94 6.05 0 6.99 0.15 6.79 0.79 -0.10 0.39 -0.64 2.36 -1.18 4.28 -0.54 1.97 -1.08 3.79 -1.28 4.08 -0.34 0.54 -6.64 0.54 -11.81 0z" data-index="22"></path>
  <path d="M290.04 187.36 c-0.54 -1.53 -2.61 -8.27 -2.51 -8.27 0 0 3.39 -0.10 7.43 -0.20 11.81 -0.34 12.64 -0.84 25.93 -15.40 3.74 -4.08 6.94 -7.18 7.63 -7.33 0.98 -0.25 1.72 0.15 3.89 2.31 1.48 1.43 2.66 2.76 2.66 2.95 0 0.49 -15.65 17.52 -19.09 20.76 -1.87 1.72 -4.28 3.44 -6.25 4.33 -3.10 1.38 -3.35 1.43 -11.32 1.43 -6.10 0 -8.22 -0.15 -8.36 -0.59z" data-index="23"></path>
  <path d="M344.90 180.81 c-2.41 -2.41 -3.05 -3.39 -2.71 -3.89 0.89 -1.23 12.74 -14.27 16.97 -18.70 4.92 -5.12 6.94 -6.54 11.51 -8.36 3.30 -1.33 3.84 -1.38 15.15 -1.62 9.84 -0.25 11.71 -0.20 11.71 0.39 0 0.89 -1.77 7.58 -2.12 8.17 -0.20 0.30 -4.53 0.59 -10.04 0.74 -8.61 0.20 -10.04 0.34 -12.15 1.28 -2.95 1.33 -8.22 6.45 -17.86 17.22 -3.94 4.38 -7.18 7.97 -7.23 7.97 -0.05 0 -1.53 -1.43 -3.25 -3.20z" data-index="24"></path>
 </g>
 <g fill="#191817">
  <path d="M266.18 294.81 c-3.59 -1.77 -4.92 -6.05 -2.95 -9.30 1.28 -2.12 2.61 -2.76 5.95 -2.80 2.12 -0.05 3.05 0.20 3.84 0.89 0.59 0.54 1.03 1.08 1.03 1.28 0 0.79 -1.62 0.93 -2.61 0.25 -2.95 -2.07 -6.74 0.05 -6.74 3.69 0 3.69 3.84 5.76 6.79 3.64 0.89 -0.59 1.28 -0.64 1.82 -0.20 1.18 0.98 0.89 1.48 -1.33 2.46 -2.61 1.18 -3.64 1.23 -5.81 0.10z" data-index="25"></path>
  <path d="M286 294.66 c-5.81 -2.85 -4.28 -11.51 2.16 -12.10 4.53 -0.44 7.04 1.97 7.04 6.69 0 3 -1.62 5.17 -4.33 5.95 -2.41 0.64 -2.51 0.64 -4.87 -0.54z m5.02 -1.72 c1.03 -0.39 2.21 -2.76 2.21 -4.38 0 -1.87 -2.46 -4.18 -4.43 -4.18 -2.31 0 -3.94 1.87 -3.94 4.62 0 1.77 0.25 2.36 1.28 3.20 1.28 1.03 3.30 1.33 4.87 0.74z" data-index="26"></path>
  <path d="M370.04 294.81 c-2.51 -1.28 -3.69 -3.10 -3.69 -5.85 0 -3.94 2.51 -6.54 6.30 -6.54 3.49 0 5.41 1.72 6 5.36 l0.34 2.02 -5.26 0 c-3.30 0 -5.22 0.20 -5.22 0.49 0 0.30 0.54 1.08 1.23 1.72 0.89 0.93 1.72 1.23 3.35 1.23 1.13 0 2.36 -0.25 2.71 -0.59 0.39 -0.39 0.74 -0.39 1.33 0.10 1.13 0.93 0.93 1.28 -1.23 2.16 -2.56 0.98 -3.79 0.98 -5.85 -0.10z m6.35 -7.58 c0 -0.30 -0.49 -1.08 -1.08 -1.72 -1.48 -1.57 -3.99 -1.53 -5.56 0.10 -1.97 1.92 -1.57 2.21 2.71 2.21 2.71 0 3.94 -0.20 3.94 -0.59z" data-index="27" style="opacity: 1;"></path>
  <path d="M407.38 294.81 c-4.62 -2.31 -5.22 -8.17 -1.18 -11.37 1.82 -1.43 5.95 -1.43 7.77 0 0.69 0.54 1.28 1.18 1.28 1.43 0 0.79 -1.57 0.98 -2.61 0.25 -2.95 -2.07 -6.74 0.05 -6.74 3.69 0 3.69 3.84 5.76 6.79 3.64 0.89 -0.64 1.28 -0.64 1.87 -0.20 0.93 0.79 0.10 1.87 -2.12 2.80 -2.07 0.84 -3 0.84 -5.07 -0.25z" data-index="28"></path>
  <path d="M427.75 295.01 c-3.10 -1.38 -4.72 -5.07 -3.69 -8.31 0.89 -2.66 2.61 -3.94 5.61 -4.18 2.26 -0.20 2.80 -0.05 4.18 1.13 1.53 1.28 2.90 4.67 2.31 5.66 -0.15 0.30 -2.36 0.49 -4.92 0.49 -2.56 0 -4.77 0.20 -4.92 0.49 -0.15 0.25 0.25 1.03 0.93 1.72 0.93 0.93 1.72 1.23 3.39 1.23 1.13 0 2.36 -0.25 2.71 -0.59 0.49 -0.44 0.79 -0.44 1.38 0.20 0.74 0.74 0.69 0.84 -0.34 1.57 -1.72 1.08 -4.87 1.38 -6.64 0.59z m6.20 -7.68 c0 -1.13 -2.46 -2.95 -3.94 -2.95 -1.48 0 -3.94 1.82 -3.94 2.95 0 0.30 1.53 0.49 3.94 0.49 2.41 0 3.94 -0.20 3.94 -0.49z" data-index="29"></path>
  <path d="M241.38 294.81 c-0.10 -0.20 -0.10 -3.94 0.05 -8.36 l0.30 -7.97 5.90 0 c5.12 0 5.81 0.10 5.56 0.79 -0.15 0.44 -0.30 0.89 -0.30 0.98 0 0.10 -2.12 0.20 -4.72 0.20 l-4.67 0 0.15 2.61 0.15 2.56 4.18 0 c3.84 0 4.18 0.10 4.18 0.98 0 0.89 -0.39 0.98 -4.28 1.13 l-4.33 0.15 0 2.66 0 2.71 4.92 0 c4.58 0 4.92 0.05 4.92 0.98 0 0.93 -0.34 0.98 -5.85 0.98 -3.25 0 -6 -0.15 -6.15 -0.39z" data-index="30"></path>
  <path d="M305.04 288.81 c0 -6.05 0.05 -6.40 0.98 -6.40 0.54 0 0.98 0.34 0.98 0.74 0 0.93 0.44 0.93 1.67 0 1.43 -1.08 4.38 -0.93 5.90 0.30 l1.28 0.98 1.43 -0.98 c2.02 -1.48 4.97 -1.38 6.64 0.20 1.23 1.13 1.28 1.38 1.28 6.40 0 4.82 -0.05 5.17 -0.98 5.17 -0.93 0 -0.98 -0.34 -0.98 -4.43 0 -3.79 -0.15 -4.58 -0.98 -5.41 -0.98 -0.98 -2.21 -1.23 -3.69 -0.69 -1.43 0.59 -2.21 2.95 -2.21 6.84 0 3.25 -0.10 3.69 -0.93 3.69 -0.79 0 -0.93 -0.54 -1.13 -4.43 -0.30 -4.97 -1.03 -6.40 -3.39 -6.40 -2.41 0 -3.39 1.92 -3.39 6.69 0 4.08 0 4.13 -1.23 4.13 l-1.23 0 0 -6.40z" data-index="31"></path>
  <path d="M336.04 288.81 c0 -5.95 0.05 -6.40 0.93 -6.40 0.49 0 1.08 0.34 1.23 0.79 0.25 0.69 0.39 0.69 1.38 0 1.57 -1.13 4.43 -0.98 6 0.25 1.18 0.93 1.43 0.98 2.16 0.30 0.44 -0.39 1.97 -0.89 3.35 -1.08 2.21 -0.30 2.66 -0.20 3.94 0.89 1.38 1.18 1.43 1.43 1.57 6.45 l0.20 5.22 -1.28 0 -1.28 0 0 -4.62 c0 -4.28 -0.10 -4.72 -1.08 -5.41 -2.07 -1.48 -4.33 -0.69 -5.31 1.87 -0.25 0.74 -0.49 2.90 -0.49 4.77 0 3.05 -0.10 3.39 -0.98 3.39 -0.89 0 -0.98 -0.34 -0.98 -3.05 -0.05 -3.74 -0.69 -6.79 -1.57 -7.33 -1.18 -0.79 -2.90 -0.44 -4.08 0.79 -1.13 1.08 -1.23 1.57 -1.23 5.41 0 4.13 0 4.18 -1.23 4.18 l-1.23 0 0 -6.40z" data-index="32"></path>
  <path d="M388.68 288.81 c0 -6.05 0.05 -6.40 0.98 -6.40 0.59 0 0.98 0.34 0.98 0.79 0 0.74 0.10 0.74 1.23 0 1.82 -1.18 3.30 -1.03 3.10 0.34 -0.10 0.79 -0.54 1.13 -1.53 1.23 -1.97 0.25 -2.80 2.21 -2.80 6.74 0 3.35 -0.10 3.69 -0.98 3.69 -0.93 0 -0.98 -0.34 -0.98 -6.40z" data-index="33"></path>
  <path d="M445.51 246.49 c0 -10.14 0.05 -14.32 0.10 -9.25 0.10 5.12 0.10 13.38 0 18.45 -0.05 5.12 -0.10 0.93 -0.10 -9.20z" data-index="34"></path>
 </g>
</svg>